<?xml version="1.0" standalone="no"?>
<!DOCTYPE svg PUBLIC "-//W3C//DTD SVG 20010904//EN"
 "http://www.w3.org/TR/2001/REC-SVG-20010904/DTD/svg10.dtd">
<svg version="1.0" xmlns="http://www.w3.org/2000/svg"
 width="700.000000pt" height="700.000000pt" viewBox="0 0 700.000000 700.000000"
 preserveAspectRatio="xMidYMid meet">
<metadata>
Created by potrace 1.14, written by Peter Selinger 2001-2017
</metadata>
<g transform="translate(0.000000,700.000000) scale(0.100000,-0.100000)"
fill="#000000" stroke="none">
<path d="M3259 6666 c-2 -2 -35 -6 -72 -10 -72 -7 -104 -11 -202 -27 -100 -17
-109 -18 -135 -24 -14 -3 -36 -8 -50 -11 -58 -11 -219 -58 -324 -93 -449 -153
-859 -407 -1196 -741 -74 -74 -149 -151 -165 -170 -93 -110 -128 -154 -188
-239 -189 -264 -336 -551 -436 -851 -54 -160 -111 -394 -126 -520 -4 -25 -12
-92 -20 -150 -13 -103 -15 -585 -2 -655 3 -16 8 -52 11 -80 10 -88 45 -270 76
-389 100 -389 279 -763 524 -1094 43 -59 82 -109 85 -112 3 -3 35 -39 70 -80
73 -85 266 -278 326 -327 22 -18 69 -56 105 -85 266 -216 652 -420 1010 -534
74 -24 286 -78 345 -88 17 -3 41 -8 55 -11 14 -3 43 -7 65 -10 22 -3 60 -8 85
-11 25 -3 77 -9 115 -14 75 -9 540 -6 615 4 25 3 65 9 90 13 25 3 52 7 60 8
81 11 121 18 155 27 22 5 51 12 65 15 180 32 457 130 695 248 334 164 599 355
855 614 128 130 150 155 247 278 230 296 398 610 516 968 41 122 79 265 93
345 2 14 9 45 14 70 8 40 14 80 36 235 13 94 12 562 -2 680 -73 622 -318 1199
-708 1673 -88 107 -307 326 -411 413 -364 302 -770 514 -1215 633 -52 14 -106
27 -120 30 -14 2 -56 11 -95 19 -38 8 -110 20 -160 27 -49 6 -103 14 -120 17
-33 6 -560 14 -566 9z m631 -230 c186 -27 310 -54 470 -103 616 -186 1167
-583 1552 -1118 216 -300 379 -658 467 -1025 29 -124 36 -158 46 -235 3 -22 8
-49 10 -60 27 -134 27 -591 -1 -800 -26 -197 -117 -544 -179 -680 -7 -16 -23
-55 -35 -85 -69 -177 -254 -484 -410 -680 -108 -136 -327 -354 -460 -460 -403
-320 -896 -540 -1380 -614 -167 -26 -233 -30 -475 -30 -349 0 -547 28 -854
121 -471 142 -888 396 -1242 752 -342 346 -594 766 -733 1224 -46 152 -87 345
-102 472 -3 33 -8 69 -11 80 -9 36 -11 498 -3 578 9 84 18 150 24 183 2 12 7
38 10 57 54 341 206 736 404 1050 64 103 183 272 201 287 3 3 24 28 45 55 67
84 305 316 413 403 283 225 584 389 920 502 111 37 275 80 353 94 19 3 46 8
60 11 14 3 41 8 60 10 19 3 49 7 65 10 17 2 66 7 110 11 44 4 82 8 85 11 12
11 485 -6 590 -21z"/>
<path d="M3364 5955 c-18 -13 -19 -38 -19 -744 0 -458 -4 -734 -10 -740 -8 -8
-234 -134 -600 -336 -60 -33 -133 -73 -197 -109 -27 -14 -69 -38 -95 -52 -27
-15 -68 -38 -93 -52 -25 -13 -103 -57 -175 -97 -71 -39 -150 -83 -175 -97
-268 -147 -366 -203 -373 -212 -13 -18 -6 -1493 7 -1510 6 -8 60 -44 120 -80
88 -52 113 -63 128 -55 18 10 19 37 17 752 l-1 742 244 133 c133 73 279 152
323 176 68 37 530 289 660 361 22 12 84 45 137 74 l97 52 1 -258 c1 -385 10
-1540 15 -2103 2 -272 4 -547 5 -611 l0 -116 86 -52 86 -51 107 56 c157 84
970 522 1166 629 171 94 287 156 447 241 47 26 88 54 90 63 2 9 3 360 3 781
l0 764 -105 59 c-58 32 -132 73 -165 92 -33 18 -80 44 -105 58 -25 13 -187
103 -360 200 -173 96 -335 186 -360 200 -80 44 -503 278 -570 315 -36 19 -67
39 -70 43 -3 5 -5 309 -4 676 0 367 -1 673 -4 680 -3 10 -84 58 -233 139 -3 2
-15 -3 -25 -11z m951 -2158 c325 -182 635 -356 690 -386 l100 -57 -2 -204 c-1
-113 -2 -395 -3 -627 l-1 -422 -27 -14 c-15 -8 -94 -51 -175 -95 -81 -45 -149
-82 -152 -82 -2 0 -36 -19 -77 -43 -40 -24 -93 -53 -118 -66 -25 -12 -52 -26
-60 -32 -8 -5 -118 -66 -245 -135 -235 -129 -309 -170 -380 -209 -22 -12 -76
-41 -120 -65 -44 -24 -88 -50 -97 -58 -22 -19 -19 -60 -23 358 -4 403 -13
1165 -20 1600 -3 168 -7 448 -10 623 l-4 318 67 -37 c37 -20 333 -186 657
-367z"/>
</g>
</svg>
